<svg width="16" height="16" viewBox="0 0 16 16" fill="none" xmlns="http://www.w3.org/2000/svg">
<g clip-path="url(#clip0_3846_5250)">
<mask id="mask0_3846_5250" style="mask-type:luminance" maskUnits="userSpaceOnUse" x="0" y="0" width="16" height="16">
<path d="M8.00017 14.6666C8.8758 14.6677 9.74303 14.4957 10.552 14.1606C11.361 13.8255 12.0958 13.3339 12.7142 12.7139C13.3341 12.0955 13.8258 11.3607 14.1609 10.5518C14.496 9.74278 14.6679 8.87556 14.6668 7.99992C14.6679 7.12429 14.496 6.25707 14.1609 5.44809C13.8258 4.63911 13.3341 3.90431 12.7142 3.28592C12.0958 2.66598 11.361 2.17433 10.552 1.83923C9.74303 1.50413 8.8758 1.33218 8.00017 1.33326C7.12453 1.33218 6.25731 1.50413 5.44833 1.83923C4.63935 2.17433 3.90456 2.66598 3.28617 3.28592C2.66622 3.90431 2.17457 4.63911 1.83947 5.44809C1.50437 6.25707 1.33242 7.12429 1.3335 7.99992C1.33242 8.87556 1.50437 9.74278 1.83947 10.5518C2.17457 11.3607 2.66622 12.0955 3.28617 12.7139C3.90456 13.3339 4.63935 13.8255 5.44833 14.1606C6.25731 14.4957 7.12453 14.6677 8.00017 14.6666Z" fill="white" stroke="white" stroke-width="2" stroke-linejoin="round"/>
<path d="M5.3335 8L7.3335 10L11.3335 6" stroke="black" stroke-width="2" stroke-linecap="round" stroke-linejoin="round"/>
</mask>
<g mask="url(#mask0_3846_5250)">
<path d="M0 0H16V16H0V0Z" fill="white"/>
</g>
</g>
<defs>
<clipPath id="clip0_3846_5250">
<rect width="16" height="16" fill="white"/>
</clipPath>
</defs>
</svg>
