<svg width="24" height="24" viewBox="0 0 24 24" fill="none" xmlns="http://www.w3.org/2000/svg">
<path d="M14 22V18C14 17.4696 13.7893 16.9609 13.4142 16.5858C13.0391 16.2107 12.5304 16 12 16C11.4696 16 10.9609 16.2107 10.5858 16.5858C10.2107 16.9609 10 17.4696 10 18V22M18 10L21.447 11.724C21.6131 11.807 21.7528 11.9346 21.8504 12.0925C21.9481 12.2504 21.9999 12.4324 22 12.618V20C22 20.5304 21.7893 21.0392 21.4142 21.4142C21.0391 21.7893 20.5304 22 20 22H4C3.46957 22 2.96086 21.7893 2.58579 21.4142C2.21071 21.0392 2 20.5304 2 20V12.618C2.0001 12.4324 2.05188 12.2504 2.14955 12.0925C2.24722 11.9346 2.38692 11.807 2.553 11.724L6 10M18 5.00002V22M4 6.00002L11.106 2.44702C11.3836 2.3083 11.6897 2.23608 12 2.23608C12.3103 2.23608 12.6164 2.3083 12.894 2.44702L20 6.00002M6 5.00002V22M14 9.00002C14 10.1046 13.1046 11 12 11C10.8954 11 10 10.1046 10 9.00002C10 7.89545 10.8954 7.00002 12 7.00002C13.1046 7.00002 14 7.89545 14 9.00002Z" stroke="white" stroke-width="2" stroke-linecap="round" stroke-linejoin="round"/>
</svg>
